<svg xmlns="http://www.w3.org/2000/svg" xmlns:xlink="http://www.w3.org/1999/xlink" width="500" zoomAndPan="magnify" viewBox="0 0 375 374.999991" height="500" preserveAspectRatio="xMidYMid meet" version="1.0"><defs><g/><clipPath id="8d064f79bd"><path d="M 75.0625 41 L 300 41 L 300 335.410156 L 75.0625 335.410156 Z M 75.0625 41 " clip-rule="nonzero"/></clipPath><clipPath id="3fe57cf76f"><path d="M 237 260.5625 L 258 260.5625 L 258 286 L 237 286 Z M 237 260.5625 " clip-rule="nonzero"/></clipPath><clipPath id="8e3414204c"><path d="M 237 284 L 258 284 L 258 310.0625 L 237 310.0625 Z M 237 284 " clip-rule="nonzero"/></clipPath><clipPath id="d47c7053ee"><path d="M 256 284 L 275.675781 284 L 275.675781 310 L 256 310 Z M 256 284 " clip-rule="nonzero"/></clipPath><clipPath id="1416bcb7c0"><path d="M 256 260.5625 L 275.675781 260.5625 L 275.675781 286 L 256 286 Z M 256 260.5625 " clip-rule="nonzero"/></clipPath><clipPath id="8600993859"><path d="M 90 102 L 234.425781 102 L 234.425781 141.171875 L 90 141.171875 Z M 90 102 " clip-rule="nonzero"/></clipPath><clipPath id="4f82f8a4e7"><path d="M 87 99.921875 L 233 99.921875 L 233 140 L 87 140 Z M 87 99.921875 " clip-rule="nonzero"/></clipPath><clipPath id="80cd6a9afc"><path d="M 84.425781 129 L 92 129 L 92 137 L 84.425781 137 Z M 84.425781 129 " clip-rule="nonzero"/></clipPath><clipPath id="e1ed8a4a48"><path d="M 84.425781 128 L 93 128 L 93 137 L 84.425781 137 Z M 84.425781 128 " clip-rule="nonzero"/></clipPath></defs><path fill="#ffffff" d="M 291.167969 101.835938 L 291.167969 288.445312 C 291.167969 309.441406 274.15625 326.453125 253.160156 326.453125 L 121.835938 326.453125 C 100.839844 326.453125 83.828125 309.441406 83.828125 288.445312 L 83.828125 88.007812 C 83.828125 67.011719 100.839844 50 121.835938 50 L 239.332031 50 L 256.613281 84.558594 Z M 291.167969 101.835938 " fill-opacity="1" fill-rule="nonzero"/><path fill="#ff914d" d="M 291.167969 101.835938 L 239.332031 101.835938 L 239.332031 50 Z M 291.167969 101.835938 " fill-opacity="1" fill-rule="nonzero"/><g clip-path="url(#8d064f79bd)"><path fill="#cc4e00" d="M 297.277344 95.726562 C 241.441406 39.914062 244.828125 42.609375 241.753906 41.710938 C 239.421875 41.03125 246.1875 41.519531 121.832031 41.359375 C 96.113281 41.359375 75.1875 62.285156 75.1875 88.003906 L 75.1875 288.449219 C 75.1875 314.167969 96.113281 335.09375 121.832031 335.09375 L 253.164062 335.09375 C 278.882812 335.09375 299.808594 314.167969 299.808594 288.449219 L 299.808594 101.835938 C 299.808594 99.476562 298.847656 97.296875 297.277344 95.726562 Z M 247.972656 70.855469 L 270.3125 93.195312 L 247.972656 93.195312 Z M 253.164062 317.816406 L 121.832031 317.816406 C 105.640625 317.816406 92.46875 304.640625 92.46875 288.449219 L 92.46875 88.003906 C 92.46875 71.8125 105.640625 58.640625 121.832031 58.640625 L 230.695312 58.640625 L 230.695312 101.835938 C 230.695312 106.605469 234.5625 110.472656 239.332031 110.472656 L 282.53125 110.472656 L 282.53125 288.449219 C 282.53125 304.640625 269.355469 317.816406 253.164062 317.816406 Z M 253.164062 317.816406 " fill-opacity="1" fill-rule="nonzero"/></g><path fill="#cc4e00" d="M 196.136719 265.980469 L 127.023438 265.980469 C 122.253906 265.980469 118.386719 269.847656 118.386719 274.617188 C 118.386719 279.390625 122.253906 283.257812 127.023438 283.257812 L 196.136719 283.257812 C 200.910156 283.257812 204.777344 279.390625 204.777344 274.617188 C 204.777344 269.847656 200.910156 265.980469 196.136719 265.980469 Z M 196.136719 265.980469 " fill-opacity="1" fill-rule="nonzero"/><path fill="#cc4e00" d="M 247.972656 231.421875 L 127.023438 231.421875 C 122.253906 231.421875 118.386719 235.289062 118.386719 240.0625 C 118.386719 244.832031 122.253906 248.699219 127.023438 248.699219 L 247.972656 248.699219 C 252.742188 248.699219 256.613281 244.832031 256.613281 240.0625 C 256.613281 235.289062 252.742188 231.421875 247.972656 231.421875 Z M 247.972656 231.421875 " fill-opacity="1" fill-rule="nonzero"/><path fill="#cc4e00" d="M 247.972656 196.867188 L 127.023438 196.867188 C 122.253906 196.867188 118.386719 200.734375 118.386719 205.503906 C 118.386719 210.277344 122.253906 214.144531 127.023438 214.144531 L 247.972656 214.144531 C 252.742188 214.144531 256.613281 210.277344 256.613281 205.503906 C 256.613281 200.734375 252.742188 196.867188 247.972656 196.867188 Z M 247.972656 196.867188 " fill-opacity="1" fill-rule="nonzero"/><path fill="#cc4e00" d="M 247.972656 162.308594 L 127.023438 162.308594 C 122.253906 162.308594 118.386719 166.175781 118.386719 170.949219 C 118.386719 175.71875 122.253906 179.585938 127.023438 179.585938 L 247.972656 179.585938 C 252.742188 179.585938 256.613281 175.71875 256.613281 170.949219 C 256.613281 166.175781 252.742188 162.308594 247.972656 162.308594 Z M 247.972656 162.308594 " fill-opacity="1" fill-rule="nonzero"/><path fill="#fcf1af" d="M 256.773438 261.515625 C 256.144531 261.585938 256.796875 265.441406 255.289062 270.3125 C 254.84375 271.75 253.628906 275.152344 251.027344 278.148438 C 246.425781 283.433594 239.992188 284.597656 237.613281 284.90625 C 238.777344 285.257812 240.332031 285.808594 242.0625 286.675781 C 244.472656 287.894531 248.117188 290.175781 251.273438 294.152344 C 255.335938 299.269531 256.507812 304.554688 256.898438 307.117188 C 256.882812 305.476562 257.050781 302.988281 258.027344 300.179688 C 259.445312 296.097656 261.792969 293.585938 263.039062 292.28125 C 267.214844 287.902344 272.042969 286.105469 274.691406 285.351562 C 273.023438 284.523438 270.648438 283.171875 268.164062 281.042969 C 263.003906 276.625 260.5625 271.621094 259.824219 269.980469 C 257.679688 265.25 257.394531 261.441406 256.773438 261.515625 Z M 256.773438 261.515625 " fill-opacity="1" fill-rule="nonzero"/><g clip-path="url(#3fe57cf76f)"><path fill="#cc4e00" d="M 256.167969 261.515625 C 255.65625 266.125 255.101562 270.917969 252.640625 274.960938 C 250.609375 278.300781 247.535156 280.945312 243.984375 282.554688 C 241.980469 283.464844 239.804688 284.019531 237.609375 284.164062 C 236.832031 284.21875 236.828125 285.429688 237.609375 285.378906 C 241.8125 285.09375 245.8125 283.449219 249.085938 280.8125 C 252.523438 278.042969 254.851562 274.273438 255.996094 270.027344 C 256.746094 267.246094 257.066406 264.367188 257.378906 261.511719 C 257.464844 260.738281 256.253906 260.746094 256.167969 261.515625 Z M 256.167969 261.515625 " fill-opacity="1" fill-rule="nonzero"/></g><g clip-path="url(#8e3414204c)"><path fill="#cc4e00" d="M 237.453125 285.492188 C 241.074219 286.578125 244.480469 288.445312 247.339844 290.921875 C 251.441406 294.476562 254.363281 299.226562 255.730469 304.472656 C 256.167969 306.144531 256.445312 307.847656 256.550781 309.570312 C 256.601562 310.34375 257.8125 310.347656 257.765625 309.570312 C 257.515625 305.496094 256.375 301.480469 254.445312 297.886719 C 251.820312 292.992188 247.707031 288.953125 242.792969 286.382812 C 241.191406 285.539062 239.507812 284.847656 237.769531 284.328125 C 237.027344 284.097656 236.703125 285.265625 237.453125 285.492188 Z M 237.453125 285.492188 " fill-opacity="1" fill-rule="nonzero"/></g><g clip-path="url(#d47c7053ee)"><path fill="#cc4e00" d="M 257.734375 309.320312 C 257.082031 303.671875 258.671875 298.011719 262.476562 293.75 C 265.101562 290.808594 268.519531 288.601562 272.15625 287.128906 C 273.148438 286.730469 274.164062 286.371094 275.195312 286.097656 C 275.945312 285.898438 275.628906 284.726562 274.871094 284.929688 C 272.238281 285.628906 269.6875 286.773438 267.359375 288.183594 C 263.191406 290.714844 259.722656 294.332031 257.863281 298.882812 C 256.515625 302.171875 256.109375 305.796875 256.519531 309.320312 C 256.609375 310.082031 257.824219 310.089844 257.734375 309.320312 Z M 257.734375 309.320312 " fill-opacity="1" fill-rule="nonzero"/></g><g clip-path="url(#1416bcb7c0)"><path fill="#cc4e00" d="M 256.199219 261.632812 C 258.84375 269.824219 262.921875 278.175781 270.054688 283.363281 C 271.449219 284.378906 272.949219 285.242188 274.527344 285.941406 C 275.234375 286.253906 275.851562 285.207031 275.136719 284.894531 C 268.460938 281.933594 263.832031 276.070312 260.675781 269.644531 C 259.363281 266.953125 258.289062 264.15625 257.367188 261.308594 C 257.128906 260.566406 255.960938 260.882812 256.199219 261.632812 Z M 256.199219 261.632812 " fill-opacity="1" fill-rule="nonzero"/></g><g clip-path="url(#8600993859)"><path fill="#cc4e00" d="M 93.800781 102.304688 L 215.050781 102.304688 C 215.683594 102.304688 216.316406 102.335938 216.949219 102.398438 C 217.582031 102.460938 218.207031 102.550781 218.828125 102.675781 C 219.453125 102.800781 220.066406 102.953125 220.675781 103.136719 C 221.28125 103.324219 221.878906 103.535156 222.464844 103.777344 C 223.050781 104.023438 223.625 104.292969 224.183594 104.589844 C 224.742188 104.890625 225.285156 105.214844 225.8125 105.570312 C 226.339844 105.921875 226.851562 106.300781 227.339844 106.703125 C 227.832031 107.105469 228.300781 107.53125 228.75 107.976562 C 229.199219 108.425781 229.625 108.898438 230.027344 109.386719 C 230.429688 109.878906 230.808594 110.386719 231.160156 110.914062 C 231.511719 111.441406 231.839844 111.984375 232.136719 112.542969 C 232.4375 113.105469 232.707031 113.675781 232.949219 114.261719 C 233.195312 114.847656 233.40625 115.445312 233.589844 116.054688 C 233.777344 116.660156 233.929688 117.273438 234.054688 117.898438 C 234.175781 118.519531 234.269531 119.148438 234.332031 119.777344 C 234.394531 120.410156 234.425781 121.042969 234.425781 121.675781 C 234.425781 122.3125 234.394531 122.945312 234.332031 123.578125 C 234.269531 124.207031 234.179688 124.835938 234.054688 125.457031 C 233.929688 126.078125 233.777344 126.695312 233.59375 127.300781 C 233.40625 127.910156 233.195312 128.507812 232.953125 129.09375 C 232.707031 129.679688 232.4375 130.25 232.136719 130.8125 C 231.839844 131.371094 231.511719 131.914062 231.160156 132.441406 C 230.808594 132.96875 230.429688 133.480469 230.027344 133.96875 C 229.625 134.460938 229.199219 134.929688 228.75 135.378906 C 228.300781 135.828125 227.832031 136.253906 227.34375 136.65625 C 226.851562 137.058594 226.34375 137.433594 225.816406 137.789062 C 225.289062 138.140625 224.742188 138.464844 224.183594 138.765625 C 223.625 139.066406 223.050781 139.335938 222.464844 139.578125 C 221.878906 139.820312 221.28125 140.035156 220.675781 140.21875 C 220.066406 140.402344 219.453125 140.558594 218.832031 140.679688 C 218.207031 140.804688 217.582031 140.898438 216.949219 140.960938 C 216.316406 141.023438 215.683594 141.054688 215.050781 141.054688 L 93.800781 141.054688 C 93.320312 141.050781 92.851562 140.957031 92.40625 140.773438 C 91.960938 140.585938 91.566406 140.320312 91.222656 139.976562 C 90.882812 139.632812 90.617188 139.238281 90.433594 138.792969 C 90.246094 138.34375 90.15625 137.878906 90.15625 137.394531 L 90.15625 105.964844 C 90.15625 105.476562 90.25 105.011719 90.433594 104.5625 C 90.621094 104.113281 90.882812 103.71875 91.226562 103.375 C 91.570312 103.03125 91.964844 102.769531 92.414062 102.582031 C 92.863281 102.398438 93.328125 102.304688 93.816406 102.304688 Z M 93.800781 102.304688 " fill-opacity="1" fill-rule="nonzero"/></g><path fill="#cc4e00" d="M 91.707031 100.355469 L 212.953125 100.355469 C 213.589844 100.355469 214.222656 100.386719 214.851562 100.449219 C 215.484375 100.511719 216.109375 100.605469 216.734375 100.726562 C 217.355469 100.851562 217.96875 101.003906 218.578125 101.191406 C 219.183594 101.375 219.78125 101.585938 220.367188 101.832031 C 220.953125 102.074219 221.527344 102.34375 222.085938 102.644531 C 222.644531 102.941406 223.191406 103.269531 223.71875 103.621094 C 224.246094 103.972656 224.753906 104.351562 225.242188 104.753906 C 225.734375 105.15625 226.203125 105.582031 226.652344 106.03125 C 227.101562 106.480469 227.527344 106.949219 227.929688 107.441406 C 228.332031 107.929688 228.710938 108.4375 229.0625 108.96875 C 229.414062 109.496094 229.742188 110.039062 230.039062 110.597656 C 230.339844 111.15625 230.609375 111.730469 230.851562 112.316406 C 231.09375 112.902344 231.308594 113.5 231.492188 114.105469 C 231.675781 114.714844 231.832031 115.328125 231.953125 115.949219 C 232.078125 116.574219 232.171875 117.199219 232.234375 117.832031 C 232.296875 118.464844 232.328125 119.097656 232.328125 119.730469 C 232.328125 120.367188 232.296875 121 232.234375 121.628906 C 232.171875 122.261719 232.078125 122.886719 231.953125 123.511719 C 231.832031 124.132812 231.675781 124.75 231.492188 125.355469 C 231.308594 125.960938 231.09375 126.558594 230.851562 127.144531 C 230.609375 127.730469 230.339844 128.304688 230.039062 128.863281 C 229.738281 129.425781 229.414062 129.96875 229.0625 130.496094 C 228.707031 131.023438 228.332031 131.53125 227.929688 132.023438 C 227.527344 132.511719 227.101562 132.984375 226.652344 133.433594 C 226.203125 133.878906 225.734375 134.304688 225.242188 134.707031 C 224.753906 135.109375 224.242188 135.488281 223.714844 135.839844 C 223.1875 136.195312 222.644531 136.519531 222.085938 136.820312 C 221.523438 137.117188 220.953125 137.390625 220.367188 137.632812 C 219.78125 137.875 219.183594 138.089844 218.574219 138.273438 C 217.96875 138.457031 217.351562 138.609375 216.730469 138.734375 C 216.109375 138.859375 215.480469 138.953125 214.851562 139.011719 C 214.21875 139.074219 213.585938 139.105469 212.949219 139.105469 L 91.707031 139.105469 C 91.222656 139.105469 90.753906 139.011719 90.308594 138.824219 C 89.859375 138.640625 89.464844 138.375 89.125 138.03125 C 88.78125 137.6875 88.515625 137.292969 88.332031 136.84375 C 88.148438 136.394531 88.054688 135.929688 88.054688 135.445312 L 88.054688 104.015625 C 88.054688 103.527344 88.148438 103.0625 88.335938 102.613281 C 88.519531 102.164062 88.785156 101.769531 89.128906 101.425781 C 89.46875 101.082031 89.867188 100.820312 90.316406 100.632812 C 90.761719 100.449219 91.230469 100.355469 91.714844 100.355469 Z M 91.707031 100.355469 " fill-opacity="1" fill-rule="nonzero"/><g clip-path="url(#4f82f8a4e7)"><path fill="#cc4e00" d="M 212.953125 139.480469 L 91.707031 139.480469 C 91.441406 139.480469 91.179688 139.453125 90.917969 139.402344 C 90.660156 139.347656 90.40625 139.273438 90.164062 139.171875 C 89.917969 139.070312 89.683594 138.945312 89.464844 138.796875 C 89.246094 138.652344 89.039062 138.484375 88.851562 138.296875 C 88.664062 138.109375 88.5 137.90625 88.351562 137.683594 C 88.203125 137.464844 88.078125 137.234375 87.976562 136.988281 C 87.875 136.742188 87.800781 136.492188 87.746094 136.230469 C 87.695312 135.972656 87.667969 135.710938 87.667969 135.445312 L 87.667969 104.015625 C 87.667969 103.75 87.695312 103.488281 87.746094 103.226562 C 87.800781 102.96875 87.875 102.714844 87.976562 102.46875 C 88.078125 102.226562 88.203125 101.992188 88.351562 101.773438 C 88.5 101.554688 88.664062 101.347656 88.851562 101.160156 C 89.039062 100.976562 89.246094 100.808594 89.464844 100.660156 C 89.683594 100.511719 89.917969 100.390625 90.164062 100.289062 C 90.40625 100.1875 90.660156 100.109375 90.917969 100.058594 C 91.179688 100.007812 91.441406 99.980469 91.707031 99.980469 L 212.953125 99.980469 C 213.925781 99.980469 214.890625 100.050781 215.851562 100.191406 C 216.8125 100.335938 217.757812 100.546875 218.6875 100.828125 C 219.617188 101.109375 220.523438 101.457031 221.398438 101.875 C 222.277344 102.289062 223.121094 102.765625 223.929688 103.304688 C 224.738281 103.84375 225.5 104.441406 226.222656 105.09375 C 226.941406 105.746094 227.609375 106.445312 228.226562 107.195312 C 228.84375 107.949219 229.398438 108.738281 229.898438 109.574219 C 230.398438 110.40625 230.835938 111.269531 231.207031 112.167969 C 231.578125 113.066406 231.882812 113.984375 232.121094 114.929688 C 232.355469 115.871094 232.519531 116.824219 232.617188 117.792969 C 232.710938 118.757812 232.734375 119.726562 232.6875 120.695312 C 232.640625 121.667969 232.523438 122.628906 232.332031 123.582031 C 232.144531 124.535156 231.886719 125.46875 231.558594 126.382812 C 231.230469 127.296875 230.839844 128.183594 230.378906 129.039062 C 229.921875 129.894531 229.40625 130.714844 228.824219 131.496094 C 228.246094 132.277344 227.613281 133.007812 226.929688 133.695312 C 226.011719 134.617188 225.015625 135.4375 223.9375 136.160156 C 222.859375 136.882812 221.71875 137.492188 220.519531 137.988281 C 219.320312 138.484375 218.085938 138.855469 216.8125 139.109375 C 215.539062 139.359375 214.25 139.484375 212.953125 139.480469 Z M 91.707031 100.730469 C 91.269531 100.730469 90.847656 100.8125 90.445312 100.980469 C 90.039062 101.148438 89.683594 101.386719 89.371094 101.695312 C 89.0625 102.003906 88.824219 102.363281 88.65625 102.765625 C 88.492188 103.171875 88.40625 103.589844 88.40625 104.027344 L 88.40625 135.445312 C 88.40625 135.882812 88.492188 136.304688 88.65625 136.707031 C 88.824219 137.113281 89.0625 137.46875 89.371094 137.777344 C 89.683594 138.085938 90.039062 138.324219 90.445312 138.492188 C 90.847656 138.660156 91.269531 138.742188 91.707031 138.742188 L 212.953125 138.742188 C 213.890625 138.746094 214.820312 138.675781 215.742188 138.539062 C 216.667969 138.402344 217.578125 138.199219 218.472656 137.929688 C 219.367188 137.65625 220.238281 137.320312 221.085938 136.921875 C 221.929688 136.523438 222.742188 136.0625 223.519531 135.542969 C 224.296875 135.023438 225.03125 134.449219 225.722656 133.824219 C 226.417969 133.195312 227.058594 132.519531 227.652344 131.796875 C 228.246094 131.074219 228.785156 130.3125 229.265625 129.511719 C 229.746094 128.707031 230.164062 127.875 230.523438 127.011719 C 230.878906 126.148438 231.171875 125.261719 231.398438 124.355469 C 231.625 123.445312 231.785156 122.527344 231.875 121.597656 C 231.96875 120.667969 231.988281 119.734375 231.945312 118.800781 C 231.898438 117.867188 231.78125 116.941406 231.597656 116.023438 C 231.417969 115.109375 231.167969 114.210938 230.851562 113.328125 C 230.535156 112.449219 230.15625 111.597656 229.714844 110.773438 C 229.273438 109.949219 228.773438 109.160156 228.21875 108.410156 C 227.660156 107.660156 227.050781 106.953125 226.386719 106.292969 C 225.507812 105.410156 224.550781 104.621094 223.511719 103.925781 C 222.476562 103.230469 221.378906 102.644531 220.226562 102.167969 C 219.074219 101.691406 217.886719 101.332031 216.660156 101.089844 C 215.4375 100.847656 214.203125 100.726562 212.953125 100.730469 Z M 91.707031 100.730469 " fill-opacity="1" fill-rule="nonzero"/></g><path fill="#fcf1af" d="M 228.425781 109.359375 L 227.410156 108.546875 C 227.226562 108.398438 227.023438 108.355469 226.796875 108.425781 L 225.546875 108.800781 C 225.28125 108.882812 225.050781 108.820312 224.859375 108.613281 C 224.671875 108.410156 224.625 108.175781 224.722656 107.917969 L 225.183594 106.699219 C 225.265625 106.476562 225.242188 106.269531 225.105469 106.074219 L 224.363281 105.007812 C 224.203125 104.773438 224.191406 104.535156 224.332031 104.289062 C 224.46875 104.042969 224.679688 103.929688 224.964844 103.949219 L 226.261719 104.007812 C 226.5 104.019531 226.6875 103.933594 226.832031 103.742188 L 227.621094 102.707031 C 227.789062 102.476562 228.011719 102.386719 228.292969 102.441406 C 228.574219 102.496094 228.75 102.660156 228.820312 102.9375 L 229.164062 104.195312 C 229.226562 104.421875 229.371094 104.574219 229.589844 104.652344 L 230.796875 105.078125 C 231.058594 105.171875 231.207031 105.355469 231.242188 105.632812 C 231.277344 105.910156 231.175781 106.125 230.945312 106.277344 L 229.855469 106.992188 C 229.660156 107.125 229.5625 107.308594 229.554688 107.542969 L 229.527344 108.84375 C 229.523438 109.125 229.394531 109.328125 229.140625 109.445312 C 228.882812 109.566406 228.648438 109.535156 228.425781 109.359375 Z M 228.425781 109.359375 " fill-opacity="1" fill-rule="nonzero"/><path fill="#cc4e00" d="M 228.847656 109.878906 C 228.601562 109.878906 228.382812 109.800781 228.195312 109.648438 L 227.175781 108.832031 C 227.09375 108.765625 227.003906 108.75 226.902344 108.78125 L 225.65625 109.15625 C 225.242188 109.277344 224.886719 109.179688 224.589844 108.863281 C 224.292969 108.546875 224.222656 108.183594 224.371094 107.777344 L 224.828125 106.578125 C 224.863281 106.480469 224.851562 106.386719 224.792969 106.300781 L 224.050781 105.230469 C 223.804688 104.875 223.785156 104.507812 223.992188 104.128906 C 224.199219 103.75 224.519531 103.570312 224.953125 103.585938 L 226.253906 103.648438 C 226.359375 103.652344 226.441406 103.613281 226.503906 103.527344 L 227.292969 102.492188 C 227.558594 102.148438 227.902344 102.015625 228.328125 102.097656 C 228.753906 102.179688 229.027344 102.429688 229.140625 102.851562 L 229.488281 104.105469 C 229.515625 104.207031 229.578125 104.277344 229.675781 104.3125 L 230.90625 104.738281 C 231.316406 104.882812 231.546875 105.167969 231.601562 105.601562 C 231.65625 106.03125 231.5 106.367188 231.136719 106.605469 L 230.046875 107.320312 C 229.960938 107.378906 229.914062 107.460938 229.914062 107.566406 L 229.886719 108.867188 C 229.878906 109.300781 229.675781 109.609375 229.285156 109.796875 C 229.144531 109.855469 229 109.882812 228.847656 109.878906 Z M 226.992188 108.015625 C 227.238281 108.015625 227.457031 108.09375 227.648438 108.246094 L 228.660156 109.0625 C 228.757812 109.140625 228.863281 109.152344 228.976562 109.101562 C 229.089844 109.046875 229.148438 108.960938 229.152344 108.832031 L 229.175781 107.53125 C 229.1875 107.164062 229.34375 106.878906 229.652344 106.675781 L 230.738281 105.976562 C 230.847656 105.90625 230.894531 105.808594 230.871094 105.679688 C 230.855469 105.554688 230.789062 105.472656 230.675781 105.433594 L 229.445312 105.003906 C 229.097656 104.882812 228.875 104.644531 228.777344 104.289062 L 228.425781 103.035156 C 228.394531 102.917969 228.316406 102.84375 228.195312 102.820312 C 228.074219 102.796875 227.976562 102.835938 227.898438 102.933594 L 227.109375 103.96875 C 226.890625 104.261719 226.59375 104.402344 226.226562 104.382812 L 224.925781 104.324219 C 224.804688 104.316406 224.710938 104.367188 224.648438 104.476562 C 224.589844 104.585938 224.59375 104.691406 224.667969 104.792969 L 225.429688 105.863281 C 225.640625 106.164062 225.679688 106.484375 225.546875 106.832031 L 225.089844 108.046875 C 225.050781 108.160156 225.070312 108.261719 225.148438 108.347656 C 225.234375 108.433594 225.332031 108.460938 225.449219 108.429688 L 226.6875 108.078125 C 226.785156 108.042969 226.886719 108.023438 226.992188 108.019531 Z M 226.992188 108.015625 " fill-opacity="1" fill-rule="nonzero"/><g clip-path="url(#80cd6a9afc)"><path fill="#fcf1af" d="M 87.652344 136.042969 L 88.65625 135.230469 C 88.839844 135.082031 89.046875 135.042969 89.273438 135.109375 L 90.519531 135.484375 C 90.792969 135.570312 91.023438 135.507812 91.21875 135.296875 C 91.414062 135.085938 91.453125 134.847656 91.347656 134.582031 L 90.882812 133.367188 C 90.800781 133.144531 90.828125 132.9375 90.960938 132.746094 L 91.703125 131.675781 C 91.863281 131.445312 91.875 131.207031 91.738281 130.964844 C 91.605469 130.71875 91.398438 130.601562 91.117188 130.617188 L 89.816406 130.675781 C 89.582031 130.6875 89.390625 130.601562 89.25 130.410156 L 88.460938 129.375 C 88.292969 129.144531 88.066406 129.054688 87.789062 129.109375 C 87.507812 129.164062 87.332031 129.328125 87.261719 129.605469 L 86.941406 130.875 C 86.878906 131.101562 86.734375 131.253906 86.515625 131.332031 L 85.285156 131.773438 C 85.019531 131.867188 84.871094 132.050781 84.835938 132.328125 C 84.800781 132.605469 84.902344 132.820312 85.132812 132.972656 L 86.222656 133.6875 C 86.417969 133.820312 86.519531 134.003906 86.523438 134.238281 L 86.554688 135.53125 C 86.5625 135.8125 86.691406 136.011719 86.945312 136.128906 C 87.199219 136.246094 87.433594 136.21875 87.652344 136.042969 Z M 87.652344 136.042969 " fill-opacity="1" fill-rule="nonzero"/></g><g clip-path="url(#e1ed8a4a48)"><path fill="#cc4e00" d="M 87.230469 136.574219 C 87.074219 136.570312 86.925781 136.539062 86.785156 136.472656 C 86.394531 136.289062 86.195312 135.976562 86.1875 135.542969 L 86.160156 134.242188 C 86.15625 134.136719 86.113281 134.054688 86.023438 134 L 84.929688 133.273438 C 84.566406 133.035156 84.410156 132.699219 84.464844 132.269531 C 84.519531 131.835938 84.75 131.550781 85.160156 131.40625 L 86.390625 130.976562 C 86.488281 130.945312 86.550781 130.875 86.578125 130.773438 L 86.925781 129.519531 C 87.039062 129.097656 87.3125 128.847656 87.738281 128.765625 C 88.164062 128.683594 88.507812 128.816406 88.773438 129.160156 L 89.554688 130.199219 C 89.617188 130.285156 89.703125 130.324219 89.808594 130.320312 L 91.109375 130.253906 C 91.539062 130.242188 91.859375 130.421875 92.066406 130.800781 C 92.273438 131.179688 92.253906 131.546875 92.007812 131.902344 L 91.28125 132.972656 C 91.222656 133.058594 91.210938 133.152344 91.246094 133.25 L 91.710938 134.472656 C 91.863281 134.878906 91.792969 135.242188 91.496094 135.5625 C 91.195312 135.878906 90.839844 135.976562 90.421875 135.847656 L 89.175781 135.472656 C 89.078125 135.441406 88.984375 135.460938 88.902344 135.527344 L 87.886719 136.339844 C 87.695312 136.496094 87.476562 136.574219 87.230469 136.574219 Z M 87.9375 129.503906 L 87.878906 129.503906 C 87.757812 129.527344 87.679688 129.597656 87.648438 129.71875 L 87.304688 130.976562 C 87.207031 131.332031 86.984375 131.570312 86.636719 131.6875 L 85.40625 132.117188 C 85.292969 132.164062 85.230469 132.246094 85.21875 132.371094 C 85.207031 132.492188 85.25 132.585938 85.355469 132.652344 L 86.445312 133.367188 C 86.75 133.570312 86.910156 133.851562 86.917969 134.222656 L 86.945312 135.523438 C 86.949219 135.648438 87.007812 135.734375 87.121094 135.785156 C 87.226562 135.832031 87.328125 135.820312 87.417969 135.75 L 88.4375 134.933594 C 88.722656 134.703125 89.042969 134.644531 89.394531 134.75 L 90.640625 135.125 C 90.761719 135.164062 90.863281 135.136719 90.949219 135.046875 C 91.035156 134.953125 91.054688 134.851562 91.011719 134.734375 L 90.546875 133.511719 C 90.417969 133.167969 90.457031 132.847656 90.664062 132.542969 L 91.410156 131.472656 C 91.480469 131.371094 91.484375 131.265625 91.425781 131.15625 C 91.363281 131.046875 91.273438 130.996094 91.148438 131.003906 L 89.847656 131.0625 C 89.476562 131.082031 89.179688 130.945312 88.957031 130.652344 L 88.175781 129.617188 C 88.117188 129.539062 88.039062 129.496094 87.9375 129.496094 Z M 87.9375 129.503906 " fill-opacity="1" fill-rule="nonzero"/></g><g fill="#f5f3f5" fill-opacity="1"><g transform="translate(99.829582, 129.511647)"><g><path d="M 15.625 0 L 14.703125 -1.890625 C 14.378906 -1.328125 13.78125 -0.828125 12.90625 -0.390625 C 12.039062 0.046875 11.03125 0.265625 9.875 0.265625 C 8.132812 0.265625 6.546875 -0.160156 5.109375 -1.015625 C 3.679688 -1.878906 2.546875 -3.097656 1.703125 -4.671875 C 0.867188 -6.253906 0.453125 -8.128906 0.453125 -10.296875 C 0.453125 -11.929688 0.707031 -13.421875 1.21875 -14.765625 C 1.726562 -16.117188 2.421875 -17.285156 3.296875 -18.265625 C 4.179688 -19.242188 5.171875 -20 6.265625 -20.53125 C 7.367188 -21.0625 8.5 -21.328125 9.65625 -21.328125 C 10.738281 -21.328125 11.632812 -21.222656 12.34375 -21.015625 C 13.050781 -20.804688 13.613281 -20.550781 14.03125 -20.25 C 14.457031 -19.945312 14.78125 -19.660156 15 -19.390625 C 15.21875 -19.117188 15.390625 -18.925781 15.515625 -18.8125 L 16.140625 -20.96875 L 20.609375 -20.96875 L 20.609375 -12.125 L 15.234375 -12.125 C 15.203125 -13.34375 14.84375 -14.28125 14.15625 -14.9375 C 13.476562 -15.601562 12.695312 -15.9375 11.8125 -15.9375 C 11.019531 -15.9375 10.3125 -15.675781 9.6875 -15.15625 C 9.070312 -14.632812 8.585938 -13.941406 8.234375 -13.078125 C 7.878906 -12.222656 7.703125 -11.296875 7.703125 -10.296875 C 7.703125 -9.273438 7.863281 -8.347656 8.1875 -7.515625 C 8.507812 -6.679688 8.976562 -6.015625 9.59375 -5.515625 C 10.21875 -5.015625 10.957031 -4.765625 11.8125 -4.765625 C 12.675781 -4.765625 13.316406 -4.914062 13.734375 -5.21875 C 14.160156 -5.519531 14.484375 -5.859375 14.703125 -6.234375 L 14.703125 -7.5 L 12.875 -7.5 L 12.875 -10.703125 L 22.828125 -10.703125 L 22.828125 -7.5 L 21.625 -7.5 L 21.625 0 Z M 15.625 0 "/></g></g></g><g fill="#f5f3f5" fill-opacity="1"><g transform="translate(123.109564, 129.511647)"><g><path d="M 0.75 0 L 0.75 -3.984375 L 2.609375 -3.984375 L 2.609375 -17.015625 L 0.75 -17.015625 L 0.75 -20.96875 L 9.90625 -20.96875 C 12.320312 -20.96875 14.378906 -20.515625 16.078125 -19.609375 C 17.773438 -18.710938 19.066406 -17.492188 19.953125 -15.953125 C 20.847656 -14.421875 21.296875 -12.691406 21.296875 -10.765625 C 21.296875 -7.347656 20.300781 -4.695312 18.3125 -2.8125 C 16.320312 -0.9375 13.476562 0 9.78125 0 Z M 8.765625 -3.984375 L 9.90625 -3.984375 C 10.957031 -4.003906 11.8125 -4.316406 12.46875 -4.921875 C 13.132812 -5.535156 13.625 -6.351562 13.9375 -7.375 C 14.25 -8.394531 14.40625 -9.523438 14.40625 -10.765625 C 14.40625 -11.847656 14.25 -12.863281 13.9375 -13.8125 C 13.625 -14.757812 13.132812 -15.53125 12.46875 -16.125 C 11.8125 -16.71875 10.957031 -17.015625 9.90625 -17.015625 L 8.765625 -17.015625 Z M 8.765625 -3.984375 "/></g></g></g><g fill="#f5f3f5" fill-opacity="1"><g transform="translate(144.709542, 129.511647)"><g><path d="M 11.1875 0.546875 C 9.101562 0.546875 7.25 0.140625 5.625 -0.671875 C 4.007812 -1.484375 2.742188 -2.710938 1.828125 -4.359375 C 0.910156 -6.015625 0.453125 -8.09375 0.453125 -10.59375 C 0.453125 -12.75 0.894531 -14.648438 1.78125 -16.296875 C 2.675781 -17.953125 3.914062 -19.238281 5.5 -20.15625 C 7.09375 -21.082031 8.921875 -21.546875 10.984375 -21.546875 C 13.441406 -21.546875 15.460938 -21.082031 17.046875 -20.15625 C 18.640625 -19.238281 19.820312 -17.941406 20.59375 -16.265625 C 21.363281 -14.597656 21.75 -12.632812 21.75 -10.375 C 21.75 -8.113281 21.335938 -6.164062 20.515625 -4.53125 C 19.703125 -2.90625 18.507812 -1.648438 16.9375 -0.765625 C 15.363281 0.109375 13.445312 0.546875 11.1875 0.546875 Z M 11.1875 -4.171875 C 12.125 -4.171875 12.867188 -4.738281 13.421875 -5.875 C 13.972656 -7.019531 14.25 -8.519531 14.25 -10.375 C 14.25 -11.59375 14.132812 -12.691406 13.90625 -13.671875 C 13.675781 -14.660156 13.320312 -15.445312 12.84375 -16.03125 C 12.363281 -16.625 11.734375 -16.921875 10.953125 -16.921875 C 10.347656 -16.941406 9.8125 -16.679688 9.34375 -16.140625 C 8.875 -15.597656 8.507812 -14.847656 8.25 -13.890625 C 7.988281 -12.929688 7.859375 -11.832031 7.859375 -10.59375 C 7.859375 -8.632812 8.171875 -7.070312 8.796875 -5.90625 C 9.429688 -4.75 10.226562 -4.171875 11.1875 -4.171875 Z M 11.1875 -4.171875 "/></g></g></g><g fill="#f5f3f5" fill-opacity="1"><g transform="translate(166.909523, 129.511647)"><g><path d="M 16.625 -7.59375 L 20.125 -3.75 C 19.445312 -3.007812 18.648438 -2.3125 17.734375 -1.65625 C 16.828125 -1.007812 15.8125 -0.488281 14.6875 -0.09375 C 13.570312 0.289062 12.359375 0.484375 11.046875 0.484375 C 8.921875 0.484375 7.0625 0.0507812 5.46875 -0.8125 C 3.882812 -1.6875 2.648438 -2.925781 1.765625 -4.53125 C 0.890625 -6.144531 0.453125 -8.066406 0.453125 -10.296875 C 0.453125 -12.015625 0.734375 -13.554688 1.296875 -14.921875 C 1.867188 -16.296875 2.613281 -17.457031 3.53125 -18.40625 C 4.457031 -19.351562 5.445312 -20.078125 6.5 -20.578125 C 7.5625 -21.078125 8.582031 -21.328125 9.5625 -21.328125 C 10.5625 -21.328125 11.382812 -21.179688 12.03125 -20.890625 C 12.6875 -20.597656 13.1875 -20.285156 13.53125 -19.953125 C 13.882812 -19.628906 14.101562 -19.410156 14.1875 -19.296875 L 14.875 -20.96875 L 19.59375 -20.96875 L 19.59375 -12.453125 L 14.21875 -12.453125 C 14.195312 -13.109375 14.066406 -13.722656 13.828125 -14.296875 C 13.585938 -14.867188 13.242188 -15.332031 12.796875 -15.6875 C 12.347656 -16.050781 11.765625 -16.234375 11.046875 -16.234375 C 10.316406 -16.234375 9.6875 -15.960938 9.15625 -15.421875 C 8.632812 -14.878906 8.222656 -14.160156 7.921875 -13.265625 C 7.617188 -12.378906 7.46875 -11.390625 7.46875 -10.296875 C 7.46875 -9.304688 7.628906 -8.378906 7.953125 -7.515625 C 8.285156 -6.660156 8.78125 -5.96875 9.4375 -5.4375 C 10.101562 -4.914062 10.90625 -4.65625 11.84375 -4.65625 C 12.488281 -4.65625 13.082031 -4.785156 13.625 -5.046875 C 14.164062 -5.316406 14.648438 -5.632812 15.078125 -6 C 15.503906 -6.375 15.851562 -6.710938 16.125 -7.015625 C 16.394531 -7.316406 16.5625 -7.507812 16.625 -7.59375 Z M 16.625 -7.59375 "/></g></g></g><g fill="#f5f3f5" fill-opacity="1"><g transform="translate(187.4895, 129.511647)"><g><path d="M 11.0625 -11.515625 L 11.1875 -11.515625 C 11.25 -11.816406 11.410156 -12.234375 11.671875 -12.765625 C 11.929688 -13.296875 12.140625 -13.738281 12.296875 -14.09375 L 13.953125 -17.125 L 12.296875 -17.125 L 12.296875 -20.96875 L 20.375 -20.96875 L 20.375 -17.125 L 18.75 -17.125 L 13.203125 -7.375 L 13.203125 -3.90625 L 14.875 -3.90625 L 14.875 0 L 5.28125 0 L 5.28125 -3.90625 L 6.984375 -3.90625 L 6.984375 -7.4375 L 1.171875 -17.125 L -0.296875 -17.125 L -0.296875 -20.96875 L 9.953125 -20.96875 L 9.953125 -17.125 L 8.40625 -17.125 L 10.140625 -13.953125 C 10.203125 -13.773438 10.296875 -13.523438 10.421875 -13.203125 C 10.554688 -12.878906 10.6875 -12.5625 10.8125 -12.25 C 10.945312 -11.945312 11.03125 -11.703125 11.0625 -11.515625 Z M 11.0625 -11.515625 "/></g></g></g><g fill="#f5f3f5" fill-opacity="1"><g transform="translate(207.559483, 129.511647)"><g><path d="M 0.75 -20.96875 L 10.703125 -20.96875 L 10.703125 -17.015625 L 8.84375 -17.015625 L 8.84375 -3.984375 L 10.703125 -3.984375 L 10.703125 0 L 0.75 0 L 0.75 -3.984375 L 2.640625 -3.984375 L 2.640625 -17.015625 L 0.75 -17.015625 Z M 0.75 -20.96875 "/></g></g></g></svg>